<svg id="Layer_1" data-name="Layer 1" xmlns="http://www.w3.org/2000/svg" xmlns:xlink="http://www.w3.org/1999/xlink" viewBox="0 0 527.26 407.09"><defs><linearGradient id="linear-gradient" x1="198.14" y1="324.36" x2="390.76" y2="324.36" gradientUnits="userSpaceOnUse"><stop offset="0" stop-color="#010101" stop-opacity="0"/><stop offset="0.95" stop-color="#010101"/></linearGradient><linearGradient id="linear-gradient-2" x1="283.8" y1="383" x2="381.27" y2="281.93" xlink:href="#linear-gradient"/><linearGradient id="linear-gradient-3" x1="329.2" y1="148.96" x2="80.05" y2="556.58" xlink:href="#linear-gradient"/><linearGradient id="linear-gradient-4" x1="278.84" y1="237.41" x2="396.25" y2="-149.18" gradientUnits="userSpaceOnUse"><stop offset="0" stop-color="#fff" stop-opacity="0"/><stop offset="0.66" stop-color="#fff"/></linearGradient><linearGradient id="linear-gradient-5" x1="298.53" y1="210.27" x2="259.66" y2="282.79" xlink:href="#linear-gradient"/><linearGradient id="linear-gradient-6" x1="198.56" y1="235.18" x2="200.58" y2="470.52" xlink:href="#linear-gradient"/><linearGradient id="linear-gradient-7" x1="184.74" y1="232.53" x2="43.99" y2="432.57" xlink:href="#linear-gradient"/><linearGradient id="linear-gradient-8" x1="191.22" y1="213.42" x2="357.63" y2="408.16" xlink:href="#linear-gradient"/><linearGradient id="linear-gradient-9" x1="385.18" y1="209.39" x2="396.79" y2="222.98" xlink:href="#linear-gradient"/><linearGradient id="linear-gradient-10" x1="289.18" y1="225.12" x2="252.6" y2="783.6" xlink:href="#linear-gradient"/><linearGradient id="linear-gradient-11" x1="117.31" y1="239.91" x2="145.38" y2="262.82" xlink:href="#linear-gradient"/><linearGradient id="linear-gradient-12" x1="146.66" y1="206.73" x2="124.65" y2="207.63" xlink:href="#linear-gradient"/><linearGradient id="linear-gradient-13" x1="131.35" y1="235.11" x2="146.92" y2="289.01" xlink:href="#linear-gradient"/><linearGradient id="linear-gradient-14" x1="152.22" y1="271.65" x2="153.49" y2="282.07" xlink:href="#linear-gradient"/><linearGradient id="linear-gradient-15" x1="163.85" y1="272.98" x2="164.56" y2="288.04" xlink:href="#linear-gradient"/><linearGradient id="linear-gradient-16" x1="143.38" y1="242.11" x2="168.64" y2="242.11" xlink:href="#linear-gradient"/><linearGradient id="linear-gradient-17" x1="162.95" y1="181.89" x2="133.3" y2="279.81" xlink:href="#linear-gradient"/><linearGradient id="linear-gradient-18" x1="144.34" y1="202.29" x2="154.85" y2="185.77" xlink:href="#linear-gradient"/><linearGradient id="linear-gradient-19" x1="253.3" y1="165.87" x2="267.9" y2="149.7" gradientTransform="translate(-61.77 -36.04) rotate(11.56)" xlink:href="#linear-gradient-4"/><linearGradient id="linear-gradient-20" x1="174.42" y1="212.16" x2="147.25" y2="222.27" xlink:href="#linear-gradient"/><linearGradient id="linear-gradient-21" x1="145.62" y1="179.39" x2="156.62" y2="171.51" xlink:href="#linear-gradient-4"/><linearGradient id="linear-gradient-22" x1="149.38" y1="171.82" x2="157.56" y2="165.95" xlink:href="#linear-gradient-4"/><linearGradient id="linear-gradient-23" x1="183.74" y1="252.73" x2="129.24" y2="276.99" xlink:href="#linear-gradient"/><linearGradient id="linear-gradient-24" x1="188.15" y1="252.51" x2="133.65" y2="276.76" xlink:href="#linear-gradient"/><linearGradient id="linear-gradient-25" x1="162.7" y1="235.46" x2="209.86" y2="296.78" xlink:href="#linear-gradient"/></defs><title>Card Payment online 1</title><path d="M540.9,317.45a160.19,160.19,0,0,1-19.72,59.34c-18.38,31.91-48.94,56.93-84.33,67.1-43.39,12.48-89.94,2.56-133.11-10.72s-86.18-30.09-131.33-31.39c-28.53-.86-57.75,4.5-85.29-3.13-28.05-7.75-51.15-29.42-63-56a99.19,99.19,0,0,1-7.88-27c-3.16-22.56.93-45.41,3-68.09,2.36-25.5,2.2-51.31,7.79-76.29s17.87-49.75,39.37-63.63c45.21-29.16,107.56.83,158.16-17.48,34.3-12.38,60.75-46.23,97.19-47.54,45.66-1.63,120.29,38.29,149.3,73,16.94,20.26,28.68,44.32,39.75,68.31,12.8,27.7,25.05,56.13,29.61,86.28A171.62,171.62,0,0,1,540.9,317.45Z" transform="translate(-15.03 -42.52)" fill="#6777ef" opacity="0.24" style="isolation:isolate"/><path d="M540.9,317.45a160.19,160.19,0,0,1-19.72,59.34c-18.38,31.91-48.94,56.93-84.33,67.1-43.39,12.48-89.94,2.56-133.11-10.72s-86.18-30.09-131.33-31.39c-28.53-.86-57.75,4.5-85.29-3.13-28.05-7.75-51.15-29.42-63-56a35.15,35.15,0,0,1,3.77-3.44c24.88-19.47,63.72-13.88,92.69-21.51,19.49-5.14,37.17-15.44,55.23-24.41A446,446,0,0,1,317,250.35c24.41-3.16,50-4.15,72.81,5.2,35.1,14.35,60.59,51.85,98.43,54.3,10.21.67,20.42-1.4,30.63-.86C526.83,309.44,535.32,312,540.9,317.45Z" transform="translate(-15.03 -42.52)" fill="#6777ef" opacity="0.24" style="isolation:isolate"/><path d="M317.7,251.85s90.44,82.65,70.07,110.2c-16.45,22.27-60.68,37.88-77,43.05a16,16,0,0,1-11.85-.89l-98.13-47.94a4.64,4.64,0,0,1,1.36-8.75c20.05-3,53.88-9.63,63.79-21.4,14.38-17.07-53.3-83.25-53.3-83.25Z" transform="translate(-15.03 -42.52)" fill="#6777ef"/><path d="M317.7,251.85s90.44,82.65,70.07,110.2c-16.45,22.27-60.68,37.88-77,43.05a16,16,0,0,1-11.85-.89l-98.13-47.94a4.64,4.64,0,0,1,1.36-8.75c20.05-3,53.88-9.63,63.79-21.4,14.38-17.07-53.3-83.25-53.3-83.25Z" transform="translate(-15.03 -42.52)" fill="url(#linear-gradient)"/><path d="M318.3,245.56s90.43,82.65,70.07,110.2c-16.46,22.27-60.68,37.88-77.05,43.05a16,16,0,0,1-11.85-.89L201.34,350a4.64,4.64,0,0,1,1.36-8.75c20.05-3,53.88-9.63,63.79-21.4,14.38-17.07-53.3-83.25-53.3-83.25Z" transform="translate(-15.03 -42.52)" fill="#6777ef"/><path d="M259.6,326.57l101.52,53s15.72-9,18.42-15.27-99.27-53.9-99.27-53.9l-13.78,9.43Z" transform="translate(-15.03 -42.52)" fill="url(#linear-gradient-2)"/><path d="M380.12,374.5,169.5,268c-9.24-4.67-14.93-13.31-14.93-22.65V75.2c0-20.13,24.88-32.72,44.78-22.65L410,159.09c9.24,4.67,14.93,13.31,14.93,22.65v170.1C424.9,372,400,384.56,380.12,374.5Z" transform="translate(-15.03 -42.52)" fill="#6777ef"/><path d="M424.91,181.75v170.1c0,11.8-8.55,21-19.63,24.57a33.2,33.2,0,0,1-25.15-1.91L169.49,268c-9.23-4.68-14.92-13.32-14.92-22.65V75.21c0-8.47,4.4-15.59,11-20.24a33,33,0,0,1,33.81-2.42L410,159.09C419.21,163.77,424.91,172.39,424.91,181.75Z" transform="translate(-15.03 -42.52)" fill="url(#linear-gradient-3)"/><path d="M416.31,186.05v170.1c0,8.49-4.42,15.61-11,20.27a33.2,33.2,0,0,1-25.15-1.91L169.49,268c-9.23-4.68-14.92-13.32-14.92-22.65V75.21c0-8.47,4.4-15.59,11-20.24a33.06,33.06,0,0,1,25.24,1.88L401.39,163.39C410.62,168.07,416.31,176.69,416.31,186.05Z" transform="translate(-15.03 -42.52)" fill="url(#linear-gradient-4)"/><path d="M203.91,190.69l183.35,93a6.51,6.51,0,0,1,3.52,6.44h0a6.5,6.5,0,0,1-9.31,5.21L178.79,197.15a6.5,6.5,0,0,1-3.54-7.13l.68-3.44a6.5,6.5,0,0,1,8.54-4.86S203.65,190.56,203.91,190.69Z" transform="translate(-15.03 -42.52)" fill="url(#linear-gradient-5)"/><path d="M338,258.82,193.14,332.1c-9.43,4.78-25.89,4.17-36.77-1.32l-87.7-44.35c-7.42-3.76-10.32-8.8-8.44-13.15,1.15,2.78,4,5.5,8.44,7.76l73.56,37.2,10.66,5.36,3.48,1.78a8.27,8.27,0,0,0,1.17.54,15.13,15.13,0,0,0,1.48.66,12.86,12.86,0,0,0,1.39.53,6.87,6.87,0,0,0,1,.33c.61.21,1.24.41,1.88.59a15.69,15.69,0,0,0,1.91.51,17.52,17.52,0,0,0,2,.43c1.32.25,2.67.48,4,.64.4.05.81.1,1.24.12s1,.1,1.55.13c7.12.43,14.14-.59,19.15-3.13l139.52-70.58Z" transform="translate(-15.03 -42.52)" fill="#6777ef"/><path d="M338,258.82,193.14,332.1c-9.43,4.78-25.89,4.17-36.77-1.32l-87.7-44.35c-7.42-3.76-10.32-8.8-8.44-13.15,1.15,2.78,4,5.5,8.44,7.76l73.56,37.2,10.66,5.36,3.48,1.78a8.27,8.27,0,0,0,1.17.54c.48.23,1,.46,1.48.66a12.86,12.86,0,0,0,1.39.53c.34.13.67.23,1,.33.61.21,1.24.41,1.88.59s1.27.35,1.91.51,1.32.3,2,.43c1.32.25,2.67.48,4,.64.4.05.84.1,1.24.12s1,.1,1.55.13c7.12.43,14.14-.59,19.15-3.13l139.52-70.58Z" transform="translate(-15.03 -42.52)" fill="url(#linear-gradient-6)"/><path d="M332.66,256.15,193.14,326.73c-8.06,4.1-21.26,4.25-31.73.71a23.76,23.76,0,0,1-3.87-1.52,8.27,8.27,0,0,1-1.17-.54l-3.48-1.78-10.66-5.36L68.67,281c-4.44-2.26-7.29-5-8.44-7.76-1.62-4,.23-8,5.83-10.85l138.57-70.1,93.7,46.7,19,9.49Z" transform="translate(-15.03 -42.52)" fill="#6777ef"/><path d="M106.05,281.17c-.21,2.58,1.47,5,3.64,6.47a21.8,21.8,0,0,0,7.28,2.65c16.58,3.9,33.65,7.81,50.49,5.23a5.83,5.83,0,0,0,3.53-1.44c1-1.12,1.08-2.82,1.72-4.21,1.34-2.94,5-4,8.26-4s6.53.75,9.66-.06,6-4,4.88-7.08c-.72-1.94-2.73-3-4.61-3.88A115.74,115.74,0,0,0,140,264.16c-7.32.2-10.66,2.5-16.8,5.72C118.27,272.47,106.64,274,106.05,281.17Z" transform="translate(-15.03 -42.52)" fill="url(#linear-gradient-7)"/><polygon points="283.3 196.52 302.32 206 146.37 284.93 145.99 285.13 142.51 283.4 137.85 281.08 127.07 275.77 127.2 275.72 283.3 196.52" fill="url(#linear-gradient-8)"/><path d="M388.88,212.34l-.46.23a22.29,22.29,0,0,0-3.66-2.29Z" transform="translate(-15.03 -42.52)" fill="url(#linear-gradient-9)"/><path d="M388.88,212.34l-.46.23a22.29,22.29,0,0,0-3.66-2.29Z" transform="translate(-15.03 -42.52)" fill="#6777ef"/><path d="M416.31,340.06v16.09c0,8.49-4.42,15.61-11,20.27a33.2,33.2,0,0,1-25.15-1.91L169.49,268c-9.23-4.68-14.92-13.32-14.92-22.65V207.56l.94-.72Z" transform="translate(-15.03 -42.52)" fill="url(#linear-gradient-10)"/><path d="M328.76,220l-95.5-48.89c-9.47-4.85-17.55-18-18-29.45l-.24-5.5c-.49-11.42,6.79-16.74,16.26-11.89l95.5,48.89c9.47,4.84,17.55,18,18,29.45l.24,5.5C345.51,219.52,338.23,224.85,328.76,220Z" transform="translate(-15.03 -42.52)" fill="#6777ef"/><path d="M247.75,164.59a20.14,20.14,0,0,0,.15-2.8V151.25a25.31,25.31,0,0,0-.15-2.93c.88.55,1.56,1,2.77,1.67l4.13,2.4c3.74,2.16,5.79,5.21,5.79,8.6s-2.15,4.28-5.81,2.16l-3-1.73v2.49a29.76,29.76,0,0,0,.15,3Zm6.71-4.85c1.32.76,2.1.45,2.1-.89a3.74,3.74,0,0,0-2.1-3.26L251.65,154v4.15Z" transform="translate(-15.03 -42.52)" fill="#fff"/><path d="M279.13,182.8a22.23,22.23,0,0,0-.45-2.36l-.51-2-5.38-3.12-.5,1.36a7.92,7.92,0,0,0-.48,1.84L267.4,176a10.5,10.5,0,0,0,.9-1.85l4.08-9.36A7.3,7.3,0,0,0,273,163l4.93,2.86a23.52,23.52,0,0,0,.64,2.48l4.09,14.1c.36,1.24.66,2.22.91,2.91Zm-3.68-15-1.75,4.83,3.55,2.06Z" transform="translate(-15.03 -42.52)" fill="#fff"/><path d="M299.77,191.89a25.42,25.42,0,0,0,.15,3l-4.12-2.39a23.07,23.07,0,0,0,.15-2.8v-3.6l-4.33-9.88c-.34-.81-.76-1.69-1.51-3.24l4.77,2.77a16.52,16.52,0,0,0,.89,2.56l2.09,5.17,2.09-2.72a4.37,4.37,0,0,0,.87-1.56L305.6,182c-.55.5-1.27,1.2-1.51,1.48l-4.32,4.86Z" transform="translate(-15.03 -42.52)" fill="#fff"/><path d="M130.25,239l-.57-.27,3.66-7.62a9.44,9.44,0,0,1,1.38-2.29,4.9,4.9,0,0,1,2.13-1.4,2,2,0,0,1,.59-.11,1.46,1.46,0,0,1,.87.38,4.26,4.26,0,0,1,1.21,2.78,21.45,21.45,0,0,1-.29,7.45l-.62-.13a20.69,20.69,0,0,0,.29-7.23,3.66,3.66,0,0,0-1-2.39.78.78,0,0,0-.48-.23h0a1,1,0,0,0-.35.07,4.25,4.25,0,0,0-1.86,1.23,8.87,8.87,0,0,0-1.28,2.14Z" transform="translate(-15.03 -42.52)" fill="#6777ef"/><path d="M141.08,236.61q.13,4.9.38,9.81a53.24,53.24,0,0,0,1.86,13.26,2,2,0,0,1,.07,1.55,2,2,0,0,1-.95.71c-3.66,1.69-7.4,3.39-11.4,3.86a38.29,38.29,0,0,1-10.45-.69.86.86,0,0,1-.38-.13c-.22-.18-.18-.53-.12-.81.79-3.86.28-7.88.86-11.78s2.3-7.6,4-11.21c.74-1.57,1.58-1.57,3.27-1.92l6.12-1.26C134.9,237.88,141.08,236.78,141.08,236.61Z" transform="translate(-15.03 -42.52)" fill="#6777ef"/><path d="M141.08,236.61q.13,4.9.38,9.81a53.24,53.24,0,0,0,1.86,13.26,2,2,0,0,1,.07,1.55,2,2,0,0,1-.95.71c-3.66,1.69-7.4,3.39-11.4,3.86a38.29,38.29,0,0,1-10.45-.69.86.86,0,0,1-.38-.13c-.22-.18-.18-.53-.12-.81.79-3.86.28-7.88.86-11.78s2.3-7.6,4-11.21c.74-1.57,1.58-1.57,3.27-1.92l6.12-1.26C134.9,237.88,141.08,236.78,141.08,236.61Z" transform="translate(-15.03 -42.52)" fill="url(#linear-gradient-11)"/><path d="M145.2,189.85c-1.87.32-3.06,2.13-4,3.77a42.77,42.77,0,0,0-3.83,7.73,37.93,37.93,0,0,0-1.56,8.54c-.35,3.73-.57,7.46-.66,11.21,0,1.18.08,2.6,1.12,3.18a2.2,2.2,0,0,0,2.46-.43,5.51,5.51,0,0,0,1.34-2.29c1-2.72,1.39-5.62,2.48-8.29.69-1.71,1.64-3.3,2.41-5a25.29,25.29,0,0,0,.5-18.89Z" transform="translate(-15.03 -42.52)" fill="#6777ef"/><path d="M145.2,189.85c-1.87.32-3.06,2.13-4,3.77a42.77,42.77,0,0,0-3.83,7.73,37.93,37.93,0,0,0-1.56,8.54c-.35,3.73-.57,7.46-.66,11.21,0,1.18.08,2.6,1.12,3.18a2.2,2.2,0,0,0,2.46-.43,5.51,5.51,0,0,0,1.34-2.29c1-2.72,1.39-5.62,2.48-8.29.69-1.71,1.64-3.3,2.41-5a25.29,25.29,0,0,0,.5-18.89Z" transform="translate(-15.03 -42.52)" fill="url(#linear-gradient-12)"/><path d="M134.72,227.41a5.57,5.57,0,0,0,.64,3.12,2.7,2.7,0,0,0,2.7,1.39,2.49,2.49,0,0,0,1.87-2.53,4.92,4.92,0,0,1,0-1.38c.06-.24.19-.46.25-.7.2-.81-.38-1.61-.48-2.44s.18-1.52-.15-2.18A2.8,2.8,0,0,0,136,222C134.88,222.88,134.76,226.13,134.72,227.41Z" transform="translate(-15.03 -42.52)" fill="#f3a984"/><path d="M133.89,240l-.6-.18,2.39-8.11a9.26,9.26,0,0,1,1-2.48,5,5,0,0,1,1.87-1.73,1.82,1.82,0,0,1,.57-.2,1.4,1.4,0,0,1,.91.23,4.22,4.22,0,0,1,1.65,2.56,21.53,21.53,0,0,1,.91,7.4l-.63,0a20.78,20.78,0,0,0-.88-7.18,3.69,3.69,0,0,0-1.37-2.19.74.74,0,0,0-.51-.15,1,1,0,0,0-.36.13,4.35,4.35,0,0,0-1.63,1.5,9.43,9.43,0,0,0-.92,2.33Z" transform="translate(-15.03 -42.52)" fill="#6777ef"/><path d="M144.19,235.91c.62,3.22,1.28,6.43,2,9.63a52.88,52.88,0,0,0,4,12.79,2,2,0,0,1,.32,1.52,1.89,1.89,0,0,1-.83.85c-3.34,2.25-6.75,4.54-10.63,5.64a38.3,38.3,0,0,1-10.42,1,.77.77,0,0,1-.4-.06c-.25-.15-.26-.49-.25-.78.17-3.94-1-7.82-1-11.76s1-7.88,2.13-11.71c.48-1.67,1.31-1.8,2.92-2.42l5.83-2.22C138.3,238.16,144.23,236.09,144.19,235.91Z" transform="translate(-15.03 -42.52)" fill="#6777ef"/><path d="M144.19,235.91c.62,3.22,1.28,6.43,2,9.63a52.88,52.88,0,0,0,4,12.79,2,2,0,0,1,.32,1.52,1.89,1.89,0,0,1-.83.85c-3.34,2.25-6.75,4.54-10.63,5.64a38.3,38.3,0,0,1-10.42,1,.77.77,0,0,1-.4-.06c-.25-.15-.26-.49-.25-.78.17-3.94-1-7.82-1-11.76s1-7.88,2.13-11.71c.48-1.67,1.31-1.8,2.92-2.42l5.83-2.22C138.3,238.16,144.23,236.09,144.19,235.91Z" transform="translate(-15.03 -42.52)" fill="url(#linear-gradient-13)"/><path d="M147.58,279.16a1.61,1.61,0,0,0,.43.95,1.64,1.64,0,0,0,1.21.26,13.58,13.58,0,0,0,6.81-2.45c.77-.55,1.56-1.51,1.1-2.33a2,2,0,0,0-1.37-.77,12.2,12.2,0,0,0-2.83-.29,1.42,1.42,0,0,1-.71-.1c-.42-.23-.48-.8-.48-1.28,0-4.77.09-9.55.39-14.31a12.68,12.68,0,0,0-.06-3.2,4.13,4.13,0,0,0-1.63-2.68c-1.08-.7-3.4-.61-4.05.73-.27.57,0,1.36.05,2,.09,1.1.11,2.21.14,3.31.09,4.31-.08,8.62.14,12.92A49.52,49.52,0,0,0,147.58,279.16Z" transform="translate(-15.03 -42.52)" fill="#f3a984"/><path d="M152.55,275a.82.82,0,0,0-.08.64,2.78,2.78,0,0,1-.3,1.8c-.61,1-1.93,1.15-3.06,1.09-.58,0-1.27-.05-1.6.43a1.49,1.49,0,0,0-.16.91c0,.4.05.8.11,1.2a.85.85,0,0,0,.12.39.74.74,0,0,0,.39.25,4.8,4.8,0,0,0,3.3-.45L156.9,279c2-.79,2.72-2.6.46-3.74C156.47,274.83,153.2,274.14,152.55,275Z" transform="translate(-15.03 -42.52)" fill="#6777ef"/><path d="M152.55,275a.82.82,0,0,0-.08.64,2.78,2.78,0,0,1-.3,1.8c-.61,1-1.93,1.15-3.06,1.09-.58,0-1.27-.05-1.6.43a1.49,1.49,0,0,0-.16.91c0,.4.05.8.11,1.2a.85.85,0,0,0,.12.39.74.74,0,0,0,.39.25,4.8,4.8,0,0,0,3.3-.45L156.9,279c2-.79,2.72-2.6.46-3.74C156.47,274.83,153.2,274.14,152.55,275Z" transform="translate(-15.03 -42.52)" fill="url(#linear-gradient-14)"/><path d="M158.54,283.28a1.66,1.66,0,0,0,.43,1,1.62,1.62,0,0,0,1.21.25A13.58,13.58,0,0,0,167,282c.77-.54,1.56-1.5,1.09-2.32a2,2,0,0,0-1.36-.78,12.24,12.24,0,0,0-2.83-.28,1.42,1.42,0,0,1-.71-.11c-.42-.22-.48-.8-.49-1.28q0-7.15.4-14.3a12.31,12.31,0,0,0-.07-3.21,4.06,4.06,0,0,0-1.62-2.67c-1.08-.71-3.4-.61-4.05.73-.27.56,0,1.35.05,2,.08,1.1.11,2.2.14,3.3.09,4.31-.08,8.62.14,12.93A47.92,47.92,0,0,0,158.54,283.28Z" transform="translate(-15.03 -42.52)" fill="#f3a984"/><path d="M163.78,278.88a.82.82,0,0,0-.08.64,2.78,2.78,0,0,1-.3,1.8c-.61,1-1.93,1.15-3.06,1.09-.58,0-1.27-.05-1.6.43a1.49,1.49,0,0,0-.16.91c0,.4,0,.8.11,1.2a.85.85,0,0,0,.12.39.74.74,0,0,0,.39.25,4.8,4.8,0,0,0,3.3-.45l5.63-2.19c2-.79,2.72-2.6.46-3.74C167.7,278.76,164.43,278.07,163.78,278.88Z" transform="translate(-15.03 -42.52)" fill="#6777ef"/><path d="M163.78,278.88a.82.82,0,0,0-.08.64,2.78,2.78,0,0,1-.3,1.8c-.61,1-1.93,1.15-3.06,1.09-.58,0-1.27-.05-1.6.43a1.49,1.49,0,0,0-.16.91c0,.4,0,.8.11,1.2a.85.85,0,0,0,.12.39.74.74,0,0,0,.39.25,4.8,4.8,0,0,0,3.3-.45l5.63-2.19c2-.79,2.72-2.6.46-3.74C167.7,278.76,164.43,278.07,163.78,278.88Z" transform="translate(-15.03 -42.52)" fill="url(#linear-gradient-15)"/><path d="M144.9,225.17a44.79,44.79,0,0,0-1.05,9.81l-.44,13.39c-.07,2.26-.12,4.62.88,6.64a9.74,9.74,0,0,0,4.92,4.28c4.62,2.06,9.88,1.89,14.93,1.69a5.39,5.39,0,0,0,2.87-.66c1.17-.8,1.51-2.35,1.6-3.75.26-4.38-1.13-8.66-2-13a54.65,54.65,0,0,1-1.07-11.2,5.15,5.15,0,0,0-.56-3,4.69,4.69,0,0,0-1.63-1.29,49.21,49.21,0,0,0-10-4.23,12.45,12.45,0,0,0-5.72-.66C146.54,223.44,145.2,224.05,144.9,225.17Z" transform="translate(-15.03 -42.52)" fill="#606161"/><path d="M144.9,225.17a44.79,44.79,0,0,0-1.05,9.81l-.44,13.39c-.07,2.26-.12,4.62.88,6.64a9.74,9.74,0,0,0,4.92,4.28c4.62,2.06,9.88,1.89,14.93,1.69a5.39,5.39,0,0,0,2.87-.66c1.17-.8,1.51-2.35,1.6-3.75.26-4.38-1.13-8.66-2-13a54.65,54.65,0,0,1-1.07-11.2,5.15,5.15,0,0,0-.56-3,4.69,4.69,0,0,0-1.63-1.29,49.21,49.21,0,0,0-10-4.23,12.45,12.45,0,0,0-5.72-.66C146.54,223.44,145.2,224.05,144.9,225.17Z" transform="translate(-15.03 -42.52)" fill="url(#linear-gradient-16)"/><path d="M158.19,191c-2.49-1.31-5.07-2.65-7.88-2.82s-5.92,1.15-6.91,3.79a9.74,9.74,0,0,0-.43,3.49l-.13,23.11a16.35,16.35,0,0,0,.63,5.62c1.06,3,3.75,5.08,6.58,6.5,3.53,1.76,7.66,2.7,11.46,1.64a5.5,5.5,0,0,0,2.92-1.71c1-1.27,1-3,1-4.62L165.26,202a18.75,18.75,0,0,0-.23-3.35C164.29,194.9,161.38,192.65,158.19,191Z" transform="translate(-15.03 -42.52)" fill="#6777ef"/><path d="M158.19,191c-2.49-1.31-5.07-2.65-7.88-2.82s-5.92,1.15-6.91,3.79a9.74,9.74,0,0,0-.43,3.49l-.13,23.11a16.35,16.35,0,0,0,.63,5.62c1.06,3,3.75,5.08,6.58,6.5,3.53,1.76,7.66,2.7,11.46,1.64a5.5,5.5,0,0,0,2.92-1.71c1-1.27,1-3,1-4.62L165.26,202a18.75,18.75,0,0,0-.23-3.35C164.29,194.9,161.38,192.65,158.19,191Z" transform="translate(-15.03 -42.52)" fill="url(#linear-gradient-17)"/><path d="M161.39,183.68a4.82,4.82,0,0,1-1.71,3.38,4.06,4.06,0,0,0-1,1c-.49.88-.06,2-.25,3a1.21,1.21,0,0,1-1.38,1,3.69,3.69,0,0,1-3-1.85,8.57,8.57,0,0,1-1.06-3.55,27.17,27.17,0,0,1-.13-5.41,8.07,8.07,0,0,1,.78-3.22,4.33,4.33,0,0,1,4.43-2.28,3.64,3.64,0,0,1,2.84,2.9c.12.71,0,1.45.05,2.16A22.94,22.94,0,0,1,161.39,183.68Z" transform="translate(-15.03 -42.52)" fill="#f3a984"/><path d="M145.33,189a35.75,35.75,0,0,0-.83,5.83,17.44,17.44,0,0,0,2.29,9.06c.93,1.62,2.35,3.21,4.22,3.37a4.69,4.69,0,0,0,4.34-2.88,11.69,11.69,0,0,0,.74-5.45,22.71,22.71,0,0,1,.1-5.53c.39-1.87,1.35-3.56,1.87-5.4a23.2,23.2,0,0,0,.42-7.49,3.83,3.83,0,0,0-.34-1.68,3.16,3.16,0,0,0-1.31-1.17,9,9,0,0,0-8.24-.17c-2.1,1.06-2.32,2.4-2.07,4.41C146.79,184.07,145.77,186.76,145.33,189Z" transform="translate(-15.03 -42.52)" fill="#606161"/><path d="M145.33,189a35.75,35.75,0,0,0-.83,5.83,17.44,17.44,0,0,0,2.29,9.06c.93,1.62,2.35,3.21,4.22,3.37a4.69,4.69,0,0,0,4.34-2.88,11.69,11.69,0,0,0,.74-5.45,22.71,22.71,0,0,1,.1-5.53c.39-1.87,1.35-3.56,1.87-5.4a23.2,23.2,0,0,0,.42-7.49,3.83,3.83,0,0,0-.34-1.68,3.16,3.16,0,0,0-1.31-1.17,9,9,0,0,0-8.24-.17c-2.1,1.06-2.32,2.4-2.07,4.41C146.79,184.07,145.77,186.76,145.33,189Z" transform="translate(-15.03 -42.52)" fill="url(#linear-gradient-18)"/><ellipse cx="151.73" cy="178.47" rx="14.67" ry="8.48" transform="translate(-68 22.06) rotate(-20.54)" fill="#6777ef"/><ellipse cx="151.61" cy="178.37" rx="14.67" ry="8.48" transform="translate(-67.97 22.01) rotate(-20.54)" fill="url(#linear-gradient-19)"/><path d="M171.21,211a143.74,143.74,0,0,1,2.73,20.66c.07,1.15,0,2.53-.95,3.16a2.25,2.25,0,0,1-2.43-.19,6.18,6.18,0,0,1-1.65-2c-3.82-6.26-6.36-13.21-8.53-20.22a31.34,31.34,0,0,1-1.82-9.64c.05-2.43.66-5.41,2.32-7.29,2.12-2.41,3.75-.3,5.17,1.72C168.89,201.29,170.22,206.23,171.21,211Z" transform="translate(-15.03 -42.52)" fill="#6777ef"/><path d="M171.21,211a143.74,143.74,0,0,1,2.73,20.66c.07,1.15,0,2.53-.95,3.16a2.25,2.25,0,0,1-2.43-.19,6.18,6.18,0,0,1-1.65-2c-3.82-6.26-6.36-13.21-8.53-20.22a31.34,31.34,0,0,1-1.82-9.64c.05-2.43.66-5.41,2.32-7.29,2.12-2.41,3.75-.3,5.17,1.72C168.89,201.29,170.22,206.23,171.21,211Z" transform="translate(-15.03 -42.52)" fill="url(#linear-gradient-20)"/><path d="M152.07,168.13a6.32,6.32,0,0,0-6.71,2.37c-1.45,2.14-1.29,5-.54,7.48a1.92,1.92,0,0,0,.6,1,2,2,0,0,0,1,.28c2,.21,4.08.39,5.9-.43s4.82-3.74,4.81-5.76C157.07,170.88,153.94,168.63,152.07,168.13Z" transform="translate(-15.03 -42.52)" fill="#6777ef"/><path d="M157.09,173.1c0,2-3.09,5-4.82,5.77a11.5,11.5,0,0,1-5.9.42,2,2,0,0,1-1-.26,2.25,2.25,0,0,1-.6-1.05,15.88,15.88,0,0,1-.45-2.07.67.67,0,0,0,.22,0c2,.19,4.09.38,5.91-.45,1.66-.73,4.59-3.51,4.78-5.52A4.57,4.57,0,0,1,157.09,173.1Z" transform="translate(-15.03 -42.52)" fill="url(#linear-gradient-21)"/><path d="M155.27,170c-.19,2-3.12,4.79-4.78,5.52-1.82.83-3.93.64-5.91.45a.67.67,0,0,1-.22,0,7.74,7.74,0,0,1,1-5.4,6.34,6.34,0,0,1,6.7-2.39A8.53,8.53,0,0,1,155.27,170Z" transform="translate(-15.03 -42.52)" fill="url(#linear-gradient-22)"/><path d="M167.86,243.89a15.25,15.25,0,0,1,1.54-8.73,3.75,3.75,0,0,1,.82-1.14,2.76,2.76,0,0,1,3.3,0,5.11,5.11,0,0,1,1.8,2.76,10.06,10.06,0,0,1,.31,4.75l-.62-.11a9.45,9.45,0,0,0-.29-4.45,4.49,4.49,0,0,0-1.56-2.44,2.15,2.15,0,0,0-2.53,0,3.26,3.26,0,0,0-.67,1,14.57,14.57,0,0,0-1.48,8.36Z" transform="translate(-15.03 -42.52)" fill="#6777ef"/><path d="M178,239.59l5.66,28a2.18,2.18,0,0,1,0,.88c-.14.58-.72.92-1.25,1.19a143.23,143.23,0,0,1-17.72,7,.53.53,0,0,1-.37,0,.5.5,0,0,1-.2-.29,7.61,7.61,0,0,1-.28-2.38q-.15-9.18-1-18.32c-.14-1.54-.3-3.07-.48-4.6-.13-1.16-.79-3.12-.51-4.23.43-1.7,5.29-2.71,6.86-3.35C169.52,243.17,178,240,178,239.59Z" transform="translate(-15.03 -42.52)" fill="#6777ef"/><path d="M178,239.59l5.66,28a2.18,2.18,0,0,1,0,.88c-.14.58-.72.92-1.25,1.19a143.23,143.23,0,0,1-17.72,7,.53.53,0,0,1-.37,0,.5.5,0,0,1-.2-.29,7.61,7.61,0,0,1-.28-2.38q-.15-9.18-1-18.32c-.14-1.54-.3-3.07-.48-4.6-.13-1.16-.79-3.12-.51-4.23.43-1.7,5.29-2.71,6.86-3.35C169.52,243.17,178,240,178,239.59Z" transform="translate(-15.03 -42.52)" fill="url(#linear-gradient-23)"/><path d="M181.43,238.36l5.66,27.95a2.07,2.07,0,0,1,0,.89c-.14.58-.72.92-1.25,1.19a143.17,143.17,0,0,1-17.72,7,.48.48,0,0,1-.37,0,.44.44,0,0,1-.2-.29,7.61,7.61,0,0,1-.28-2.38c-.1-6.11-.44-12.23-1-18.32-.14-1.53-.3-3.07-.48-4.6-.13-1.15-.79-3.11-.51-4.22.43-1.7,5.29-2.72,6.86-3.36C173,241.93,181.5,238.72,181.43,238.36Z" transform="translate(-15.03 -42.52)" fill="#6777ef"/><path d="M172.05,244.94a15.23,15.23,0,0,1-2.44-8.52,3.86,3.86,0,0,1,.23-1.39,2.72,2.72,0,0,1,3-1.44,5.1,5.1,0,0,1,2.83,1.69,10.16,10.16,0,0,1,2.36,4.13l-.6.17a9.57,9.57,0,0,0-2.22-3.87,4.53,4.53,0,0,0-2.47-1.51,2.15,2.15,0,0,0-2.29,1.08,3.26,3.26,0,0,0-.18,1.15,14.51,14.51,0,0,0,2.34,8.17Z" transform="translate(-15.03 -42.52)" fill="#6777ef"/><path d="M182.36,239.37,188,267.32a2.07,2.07,0,0,1,0,.89c-.13.58-.72.92-1.25,1.19a143.17,143.17,0,0,1-17.72,7,.42.42,0,0,1-.36,0,.44.44,0,0,1-.2-.29,7.58,7.58,0,0,1-.28-2.38c-.1-6.11-.44-12.23-1-18.32-.15-1.53-.31-3.07-.48-4.6-.14-1.15-.79-3.11-.51-4.22.43-1.7,5.28-2.72,6.86-3.36C173.94,242.94,182.44,239.73,182.36,239.37Z" transform="translate(-15.03 -42.52)" fill="url(#linear-gradient-24)"/><path d="M185.85,238.13l5.65,28a2,2,0,0,1,.05.88c-.13.58-.71.92-1.25,1.19a143.23,143.23,0,0,1-17.72,7,.51.51,0,0,1-.36,0,.5.5,0,0,1-.2-.29,7.61,7.61,0,0,1-.28-2.38q-.15-9.18-1-18.32c-.14-1.54-.31-3.07-.48-4.6-.13-1.16-.79-3.12-.51-4.23.43-1.7,5.28-2.71,6.86-3.35C177.42,241.71,185.92,238.49,185.85,238.13Z" transform="translate(-15.03 -42.52)" fill="#6777ef"/><path d="M185.85,238.13l5.65,28a2,2,0,0,1,.05.88c-.13.58-.71.92-1.25,1.19a143.23,143.23,0,0,1-17.72,7,.51.51,0,0,1-.36,0,.5.5,0,0,1-.2-.29,7.61,7.61,0,0,1-.28-2.38q-.15-9.18-1-18.32c-.14-1.54-.31-3.07-.48-4.6-.13-1.16-.79-3.12-.51-4.23.43-1.7,5.28-2.71,6.86-3.35C177.42,241.71,185.92,238.49,185.85,238.13Z" transform="translate(-15.03 -42.52)" fill="url(#linear-gradient-25)"/><path d="M170.81,231.1a2.91,2.91,0,0,0-1.75.68,1.81,1.81,0,0,0-.32,1.38c.06.48.21.94.26,1.42.1.94-.18,2,.25,2.8a2.66,2.66,0,0,0,2.3,1.23,3.48,3.48,0,0,0,3.56-2.25,4.15,4.15,0,0,0,.07-1.45c-.13-1.15-.56-3.47-1.39-4.34S171.76,230.9,170.81,231.1Z" transform="translate(-15.03 -42.52)" fill="#f3a984"/><path d="M103.32,173.3v-4.75a13.61,13.61,0,0,1-7.2-2.07l1.13-3.15a12.55,12.55,0,0,0,6.78,2c3.34,0,5.6-1.92,5.6-4.61s-1.84-4.18-5.32-5.59c-4.8-1.89-7.76-4.05-7.76-8.14,0-3.91,2.77-6.87,7.1-7.58v-4.75h2.92v4.56a12.58,12.58,0,0,1,6.11,1.65L111.51,144a11.34,11.34,0,0,0-5.93-1.6c-3.62,0-5,2.16-5,4,0,2.45,1.74,3.67,5.84,5.37,4.84,2,7.29,4.42,7.29,8.6,0,3.72-2.59,7.2-7.44,8v4.89Z" transform="translate(-15.03 -42.52)" fill="#fff"/><path d="M65,213.23v-4.75a13.61,13.61,0,0,1-7.2-2.07L59,203.26a12.55,12.55,0,0,0,6.78,2c3.34,0,5.59-1.92,5.59-4.61s-1.83-4.18-5.31-5.59c-4.8-1.89-7.76-4.05-7.76-8.14,0-3.91,2.77-6.87,7.1-7.58v-4.75h2.92v4.56a12.58,12.58,0,0,1,6.11,1.65l-1.17,3.11a11.34,11.34,0,0,0-5.93-1.6c-3.62,0-5,2.16-5,4,0,2.45,1.74,3.67,5.84,5.37,4.84,2,7.29,4.42,7.29,8.6,0,3.72-2.59,7.2-7.44,8v4.89Z" transform="translate(-15.03 -42.52)" fill="#fff"/><path d="M452.24,213.23v-4.75a13.61,13.61,0,0,1-7.2-2.07l1.13-3.15a12.53,12.53,0,0,0,6.78,2c3.34,0,5.59-1.92,5.59-4.61s-1.83-4.18-5.31-5.59c-4.8-1.89-7.76-4.05-7.76-8.14,0-3.91,2.77-6.87,7.1-7.58v-4.75h2.92v4.56a12.58,12.58,0,0,1,6.11,1.65l-1.17,3.11a11.34,11.34,0,0,0-5.93-1.6c-3.63,0-5,2.16-5,4,0,2.45,1.74,3.67,5.84,5.37,4.84,2,7.29,4.42,7.29,8.6,0,3.72-2.59,7.2-7.44,8v4.89Z" transform="translate(-15.03 -42.52)" fill="#fff"/><path d="M400.24,148.48v-4.75a13.59,13.59,0,0,1-7.2-2.07l1.13-3.15a12.52,12.52,0,0,0,6.77,2c3.34,0,5.6-1.93,5.6-4.61s-1.83-4.18-5.32-5.6c-4.79-1.88-7.76-4-7.76-8.13,0-3.91,2.78-6.87,7.11-7.58v-4.75h2.91v4.56a12.66,12.66,0,0,1,6.12,1.65l-1.18,3.11a11.31,11.31,0,0,0-5.93-1.6c-3.62,0-5,2.16-5,4,0,2.45,1.74,3.67,5.83,5.36,4.85,2,7.29,4.43,7.29,8.61,0,3.72-2.58,7.2-7.43,8v4.89Z" transform="translate(-15.03 -42.52)" fill="#fff"/></svg>